# xmcd
#
# Track frame offsets:
#	150
#	21024
#	41722
#	62766
#	85448
#	101172
#	122862
#	144952
#	159582
#	181438
#	199141
#
# Disc length: 2858 seconds
#
# Revision: 1
# Processed by: cddbd v1.5.2PL0 Copyright (c) Steve Scherf et al.
# Submitted via: EZCDAudioConverter 3.1.0.1
#
DISCID=9a0b280b
DTITLE=Mary Gauthier - Filth and Fire
DYEAR=2002
DGENRE=Country
TTITLE0=Walk Through the Fire
TTITLE1=Long Way to Fall
TTITLE2=Sugar Cane
TTITLE3=Merry Go Round
TTITLE4=Good-Bye
TTITLE5=Camelot Motel
TTITLE6=After You're Gone
TTITLE7=The Ledge
TTITLE8=Christmas in Paradise
TTITLE9=For Rose
TTITLE10=The Sun Fades the Color of Everything
EXTD=
EXTT0=
EXTT1=
EXTT2=
EXTT3=
EXTT4=
EXTT5=
EXTT6=
EXTT7=
EXTT8=
EXTT9=
EXTT10=
PLAYORDER=
